<svg width="1920" height="3476" viewBox="0 0 1920 3476" fill="none" xmlns="http://www.w3.org/2000/svg">
<g opacity="0.2">
<path d="M2000.36 2373.17C2446.67 1764.37 2337.09 1253.02 2015.73 1160.48C1645.32 1053.92 1083.09 1529.38 936.102 1283.71C801.824 1059.7 1201.71 548.974 1081.67 410.312C971.327 282.895 450.944 503.142 -1234.62 1876.27" stroke="url(#paint0_linear_2_62)" stroke-width="2" stroke-miterlimit="10"/>
<path d="M-1257.31 1939.29C404.932 586.292 935.165 354.268 1059.04 468.891C1150.57 554.192 998.529 815.592 941.314 1039.51C910.294 1154.27 912.393 1246.32 947.423 1307.38C1061.88 1507.74 1429.68 1261.66 1767.19 1213.22C1853.52 1200.5 1929.82 1202.58 1994.53 1219.4C2325.02 1302.79 2471.2 1762.31 2049.13 2351.51" stroke="url(#paint1_linear_2_62)" stroke-width="2" stroke-miterlimit="10"/>
<path d="M-1279.82 2002.15C359.011 669.426 898.847 425.686 1035.81 527.5C1136.48 602.363 996.974 852.981 947.966 1067.2C921.059 1178.79 924.552 1268.99 958.179 1330.94C1067.68 1532.44 1412.01 1314.92 1745.63 1272.49C1830.62 1261.45 1906.73 1263.41 1972.73 1278.33C2310.79 1354.54 2495.19 1760.16 2097.38 2329.72" stroke="url(#paint2_linear_2_62)" stroke-width="2" stroke-miterlimit="10"/>
<path d="M-1302.26 2064.86C312.774 752.706 862.279 497.405 1012.8 586.167C1122.53 650.83 995.525 890.39 954.795 1095.06C931.936 1203.38 936.742 1291.77 968.905 1354.59C1073.66 1557.31 1394.14 1368.09 1724.03 1331.86C1807.94 1322.24 1884 1323.99 1951.3 1337.11C2297.8 1404.99 2519.5 1757.82 2145.94 2307.76" stroke="url(#paint3_linear_2_62)" stroke-width="2" stroke-miterlimit="10"/>
<path d="M-1325.1 2128.08C266.722 835.958 825.511 569.248 989.727 645.005C1108.29 699.52 994.045 928.096 961.795 1122.89C942.985 1228 949.152 1314.68 979.976 1378.39C1079.97 1582.31 1376.67 1421.55 1703.03 1391.46C1785.48 1383.5 1861.26 1385.15 1929.7 1396.39C2284.69 1455.96 2543.6 1756.1 2194.35 2286.4" stroke="url(#paint4_linear_2_62)" stroke-width="2" stroke-miterlimit="10"/>
<path d="M-1348.03 2191.11C220.52 919.331 796.953 631.326 966.625 703.893C1087.97 755.404 993.035 965.228 968.489 1150.92C953.83 1252.65 961.363 1337.62 990.774 1402.27C1086.02 1607.38 1358.83 1475.06 1681.18 1451.09C1762.46 1444.53 1838.13 1445.99 1907.72 1455.47C2271.53 1506.32 2567.39 1754.07 2242.32 2264.8" stroke="url(#paint5_linear_2_62)" stroke-width="2" stroke-miterlimit="10"/>
<path d="M-1370.52 2254.32C174.248 1002.9 751.111 714.045 943.84 762.338C1078.9 797.744 991.568 1003.09 975.097 1179.16C964.552 1277.46 973.426 1360.74 1001.43 1426.33C1091.92 1632.63 1341.08 1528.69 1659.49 1510.86C1739.49 1505.83 1815 1507.17 1885.71 1514.88C2257.99 1557.43 2591.39 1752.07 2290.34 2243.44" stroke="url(#paint6_linear_2_62)" stroke-width="2" stroke-miterlimit="10"/>
<path d="M-1393.27 2317.46C127.898 1086.31 714.289 785.908 920.17 821.936C1064.28 846.754 990.948 1040.08 981.857 1207.21C975.444 1301.98 985.711 1383.56 1012.41 1449.99C1098.01 1657.57 1323.35 1582.2 1638.11 1570.22C1711.25 1567.56 1787.51 1566.93 1864.12 1573.8C2245.17 1607.74 2615.11 1750.41 2338.51 2221.9" stroke="url(#paint7_linear_2_62)" stroke-width="2" stroke-miterlimit="10"/>
<path d="M-1416.09 2380.7C81.6039 1170.09 676.402 859.108 896.973 880.907C1049.43 896.081 990.141 1077.39 988.65 1235.38C986.405 1326.58 997.994 1406.6 1023.22 1474.09C1104.07 1682.85 1305.73 1635.72 1616.47 1630.11C1688.85 1628.77 1764.78 1628.3 1842.3 1633.25C2231.57 1658.56 2638.72 1748.84 2386.47 2200.52" stroke="url(#paint8_linear_2_62)" stroke-width="2" stroke-miterlimit="10"/>
<path d="M-1438.8 2443.89C35.2604 1253.78 638.647 932.15 873.364 940.461C1034.03 946.081 989.375 1115.05 994.883 1263.84C996.765 1351.41 1009.64 1429.89 1033.37 1498.45C1109.51 1708.39 1287.39 1689.71 1594.65 1689.75C1666 1689.64 1741.98 1689.19 1820.32 1692.33C2218.99 1708.74 2662.76 1746.71 2434.7 2178.8" stroke="url(#paint9_linear_2_62)" stroke-width="2" stroke-miterlimit="10"/>
<path d="M-1461.68 2507.23C-11.212 1337.57 600.623 1005.55 849.744 999.818C1018.53 995.993 988.467 1152.34 1001.05 1292.48C1007.17 1376.26 1021.4 1453.18 1043.67 1522.78C1115 1733.87 1269.17 1743.52 1572.15 1750.24C1642.58 1751.66 1718.47 1751.06 1797.5 1752.49C2205.2 1759.87 2685.55 1745.83 2481.86 2158.24" stroke="url(#paint10_linear_2_62)" stroke-width="2" stroke-miterlimit="10"/>
<path d="M-1484.6 2570.65C-57.7906 1421.6 562.614 1079.11 826.282 1059.4C1003.14 1046.25 987.894 1189.8 1007.34 1321.21C1018.56 1396.71 1030.74 1473.16 1054.06 1547.32C1120.72 1759.46 1251.03 1797.64 1550.17 1810.41C1619.64 1813.21 1695.51 1812.47 1775.38 1812.24C2192.1 1810.62 2709.05 1744.6 2529.5 2137.38" stroke="url(#paint11_linear_2_62)" stroke-width="2" stroke-miterlimit="10"/>
<path d="M-1507.56 2634.13C-104.689 1506.04 523.986 1152.91 802.479 1119.18C987.491 1096.62 987.374 1227.21 1013.46 1350.09C1028.84 1422.62 1042.53 1497.45 1064.22 1571.99C1125.88 1785.58 1232.7 1851.73 1527.96 1870.66C1596.4 1874.95 1672.29 1874.1 1752.82 1872.01C2178.65 1861.18 2732.06 1743.44 2576.7 2116.61" stroke="url(#paint12_linear_2_62)" stroke-width="2" stroke-miterlimit="10"/>
<path d="M-1530.69 2697.65C-151.138 1589.87 485.732 1227.12 778.554 1179.12C971.459 1147.46 986.802 1264.68 1019.36 1379.23C1039.12 1448.61 1054.17 1521.91 1073.96 1596.85C1131.17 1811.28 1213.86 1906.08 1505.45 1931.25C1573.07 1936.83 1648.87 1935.84 1730.05 1932.16C2165.21 1911.93 2755 1742.5 2623.82 2096.05" stroke="url(#paint13_linear_2_62)" stroke-width="2" stroke-miterlimit="10"/>
<path d="M-1553.53 2761.27C-197.896 1674.2 446.81 1301.65 754.607 1239.21C955.527 1198.38 986.355 1302.12 1025.19 1408.42C1049.42 1474.53 1065.76 1546.53 1084.09 1621.88C1136.44 1837.41 1195.56 1960.48 1483.01 1991.73C1553.33 1998.01 1628.31 1998.07 1707.64 1991.9C2151.58 1962.77 2777.66 1742.09 2670.75 2075.66" stroke="url(#paint14_linear_2_62)" stroke-width="2" stroke-miterlimit="10"/>
<path d="M-1576.67 2825.04C-244.838 1758.79 408.421 1376.2 730.303 1299.45C939.142 1249.56 985.664 1339.65 1030.87 1437.97C1059.63 1500.72 1077.17 1571.39 1093.74 1647.18C1141.39 1863.83 1176.72 2015.2 1460.19 2052.45C1529.18 2060.27 1604.04 2060.28 1684.3 2052.49C2138.24 2013.18 2799.92 1741.64 2717.71 2055.23" stroke="url(#paint15_linear_2_62)" stroke-width="2" stroke-miterlimit="10"/>
<path d="M-1599.88 2888.93C-291.868 1843.44 369.288 1451.68 706.177 1360.05C922.65 1301.29 985.242 1377.33 1036.31 1467.66C1069.7 1526.94 1088.17 1596.59 1103.13 1672.73C1145.97 1890.45 1157.7 2070.01 1437.37 2113.44C1505.12 2122.66 1579.95 2122.53 1661.2 2113.04C2124.01 2064.53 2821.94 1741.64 2763.64 2035.92" stroke="url(#paint16_linear_2_62)" stroke-width="2" stroke-miterlimit="10"/>
<path d="M-1624.83 2955.76C-342.519 1933.62 325.973 1532.6 677.335 1426.86C901.608 1359.29 980.056 1421.06 1036.82 1503.63C1075.17 1559.22 1094.41 1627.68 1107.66 1704.14C1145.9 1922.38 1133.72 2130 1409.19 2179.55C1475.67 2190.11 1550.4 2189.85 1632.48 2178.78C2104.17 2120.81 2837.24 1747.78 2803.13 2021.98" stroke="url(#paint17_linear_2_62)" stroke-width="2" stroke-miterlimit="10"/>
<path d="M-1649.89 3022.7C-392.763 2022.9 282.62 1614.02 648.032 1494.27C879.787 1418.12 974.197 1465.49 1036.49 1540.67C1079.16 1592.79 1099.74 1659.98 1111.26 1736.63C1144.56 1955.77 1108.93 2190.91 1380.38 2246.24C1445.58 2258.12 1520.22 2257.73 1603.12 2245.09C2083.68 2177.63 2851.54 1755.36 2841.54 2009.18" stroke="url(#paint18_linear_2_62)" stroke-width="2" stroke-miterlimit="10"/>
<path d="M-1674.95 3089.67C-442.952 2112.78 239.264 1695.47 619.135 1561.06C858.516 1476.32 968.942 1509.13 1036.9 1576.77C1084.78 1624.56 1105.63 1691.32 1115.41 1768.4C1143.89 1988.22 1084.8 2250.81 1351.84 2312.42C1415.72 2325.67 1490.27 2325.17 1574.01 2310.92C2063.57 2233.71 2865.93 1761.92 2880.04 1996.14" stroke="url(#paint19_linear_2_62)" stroke-width="2" stroke-miterlimit="10"/>
<path d="M-1699.81 3156.49C-493.144 2202.29 195.568 1777.25 589.85 1628.01C836.605 1534.9 963.102 1553.03 1036.45 1613.47C1089.43 1657.07 1110.82 1723.23 1119.09 1800.3C1142.78 2020.93 1060.21 2310.96 1323.04 2378.5C1385.7 2393.01 1460.18 2392.39 1544.68 2376.65C2043.61 2288.85 2879.53 1769.46 2917.85 1983.74" stroke="url(#paint20_linear_2_62)" stroke-width="2" stroke-miterlimit="10"/>
<path d="M-1724.8 3223.31C192.656 1711.13 831.375 1511.06 1036.37 1650.38C1260.16 1802.45 945.466 2345.55 1294.35 2444.94C1703.72 2561.43 2882.85 1744.29 2955.45 1971.87" stroke="url(#paint21_linear_2_62)" stroke-width="2" stroke-miterlimit="10"/>
</g>
<defs>
<linearGradient id="paint0_linear_2_62" x1="1650.28" y1="578.435" x2="1011.1" y2="2589.89" gradientUnits="userSpaceOnUse">
<stop offset="0.293269" stop-color="#8732FF"/>
<stop offset="0.884615" stop-color="#312B67"/>
</linearGradient>
<linearGradient id="paint1_linear_2_62" x1="1628.64" y1="641.406" x2="989.347" y2="2653.21" gradientUnits="userSpaceOnUse">
<stop offset="0.293269" stop-color="#8732FF"/>
<stop offset="0.884615" stop-color="#312B67"/>
</linearGradient>
<linearGradient id="paint2_linear_2_62" x1="1607.14" y1="703.875" x2="967.645" y2="2716.32" gradientUnits="userSpaceOnUse">
<stop offset="0.293269" stop-color="#8732FF"/>
<stop offset="0.884615" stop-color="#312B67"/>
</linearGradient>
<linearGradient id="paint3_linear_2_62" x1="1586.17" y1="765.77" x2="946.304" y2="2779.39" gradientUnits="userSpaceOnUse">
<stop offset="0.293269" stop-color="#8732FF"/>
<stop offset="0.884615" stop-color="#312B67"/>
</linearGradient>
<linearGradient id="paint4_linear_2_62" x1="1565.8" y1="827.185" x2="925.188" y2="2843.15" gradientUnits="userSpaceOnUse">
<stop offset="0.293269" stop-color="#8732FF"/>
<stop offset="0.884615" stop-color="#312B67"/>
</linearGradient>
<linearGradient id="paint5_linear_2_62" x1="1545.94" y1="887.453" x2="904.253" y2="2906.81" gradientUnits="userSpaceOnUse">
<stop offset="0.293269" stop-color="#8732FF"/>
<stop offset="0.884615" stop-color="#312B67"/>
</linearGradient>
<linearGradient id="paint6_linear_2_62" x1="1526.77" y1="947.398" x2="883.843" y2="2970.68" gradientUnits="userSpaceOnUse">
<stop offset="0.293269" stop-color="#8732FF"/>
<stop offset="0.884615" stop-color="#312B67"/>
</linearGradient>
<linearGradient id="paint7_linear_2_62" x1="1507.57" y1="1007.18" x2="863.351" y2="3034.54" gradientUnits="userSpaceOnUse">
<stop offset="0.293269" stop-color="#8732FF"/>
<stop offset="0.884615" stop-color="#312B67"/>
</linearGradient>
<linearGradient id="paint8_linear_2_62" x1="1489.54" y1="1065.54" x2="843.473" y2="3098.71" gradientUnits="userSpaceOnUse">
<stop offset="0.293269" stop-color="#8732FF"/>
<stop offset="0.884615" stop-color="#312B67"/>
</linearGradient>
<linearGradient id="paint9_linear_2_62" x1="1471.81" y1="1123.56" x2="823.798" y2="3162.86" gradientUnits="userSpaceOnUse">
<stop offset="0.293269" stop-color="#8732FF"/>
<stop offset="0.884615" stop-color="#312B67"/>
</linearGradient>
<linearGradient id="paint10_linear_2_62" x1="1454.95" y1="1180.44" x2="804.532" y2="3227.34" gradientUnits="userSpaceOnUse">
<stop offset="0.293269" stop-color="#8732FF"/>
<stop offset="0.884615" stop-color="#312B67"/>
</linearGradient>
<linearGradient id="paint11_linear_2_62" x1="1438.98" y1="1236.39" x2="785.772" y2="3292.08" gradientUnits="userSpaceOnUse">
<stop offset="0.293269" stop-color="#8732FF"/>
<stop offset="0.884615" stop-color="#312B67"/>
</linearGradient>
<linearGradient id="paint12_linear_2_62" x1="1423.75" y1="1291.25" x2="767.346" y2="3357" gradientUnits="userSpaceOnUse">
<stop offset="0.293269" stop-color="#8732FF"/>
<stop offset="0.884615" stop-color="#312B67"/>
</linearGradient>
<linearGradient id="paint13_linear_2_62" x1="1409.44" y1="1344.96" x2="749.4" y2="3422.16" gradientUnits="userSpaceOnUse">
<stop offset="0.293269" stop-color="#8732FF"/>
<stop offset="0.884615" stop-color="#312B67"/>
</linearGradient>
<linearGradient id="paint14_linear_2_62" x1="1396.53" y1="1397.18" x2="732.286" y2="3487.61" gradientUnits="userSpaceOnUse">
<stop offset="0.293269" stop-color="#8732FF"/>
<stop offset="0.884615" stop-color="#312B67"/>
</linearGradient>
<linearGradient id="paint15_linear_2_62" x1="1384.86" y1="1447.81" x2="715.761" y2="3553.49" gradientUnits="userSpaceOnUse">
<stop offset="0.293269" stop-color="#8732FF"/>
<stop offset="0.884615" stop-color="#312B67"/>
</linearGradient>
<linearGradient id="paint16_linear_2_62" x1="1374.62" y1="1496.64" x2="699.971" y2="3619.74" gradientUnits="userSpaceOnUse">
<stop offset="0.293269" stop-color="#8732FF"/>
<stop offset="0.884615" stop-color="#312B67"/>
</linearGradient>
<linearGradient id="paint17_linear_2_62" x1="1400.55" y1="1501.34" x2="703.152" y2="3695.65" gradientUnits="userSpaceOnUse">
<stop offset="0.293269" stop-color="#8732FF"/>
<stop offset="0.884615" stop-color="#312B67"/>
</linearGradient>
<linearGradient id="paint18_linear_2_62" x1="1429.58" y1="1502.22" x2="707.86" y2="3772.29" gradientUnits="userSpaceOnUse">
<stop offset="0.293269" stop-color="#8732FF"/>
<stop offset="0.884615" stop-color="#312B67"/>
</linearGradient>
<linearGradient id="paint19_linear_2_62" x1="1460.83" y1="1500.4" x2="713.628" y2="3849.44" gradientUnits="userSpaceOnUse">
<stop offset="0.293269" stop-color="#8732FF"/>
<stop offset="0.884615" stop-color="#312B67"/>
</linearGradient>
<linearGradient id="paint20_linear_2_62" x1="1493.05" y1="1497.36" x2="719.828" y2="3926.64" gradientUnits="userSpaceOnUse">
<stop offset="0.293269" stop-color="#8732FF"/>
<stop offset="0.884615" stop-color="#312B67"/>
</linearGradient>
<linearGradient id="paint21_linear_2_62" x1="1526.37" y1="1493.07" x2="726.467" y2="4004.16" gradientUnits="userSpaceOnUse">
<stop offset="0.293269" stop-color="#8732FF"/>
<stop offset="0.884615" stop-color="#312B67"/>
</linearGradient>
</defs>
</svg>
